<svg xmlns="http://www.w3.org/2000/svg" viewBox="0 0 640 400" width="640" height="400" role="img" aria-label="Placeholder artwork">
  <defs>
    <linearGradient id="bg" x1="0" y1="0" x2="1" y2="1">
      <stop offset="0%" stop-color="#121a2e"/>
      <stop offset="100%" stop-color="#0a0e1a"/>
    </linearGradient>
    <radialGradient id="glow" cx="78%" cy="18%" r="62%">
      <stop offset="0%" stop-color="#2450e6" stop-opacity="0.30"/>
      <stop offset="100%" stop-color="#2450e6" stop-opacity="0"/>
    </radialGradient>
    <pattern id="grid" width="32" height="32" patternUnits="userSpaceOnUse">
      <path d="M32 0H0V32" fill="none" stroke="#ffffff" stroke-opacity="0.05" stroke-width="1"/>
    </pattern>
  </defs>
  <rect width="640" height="400" fill="url(#bg)"/>
  <rect width="640" height="400" fill="url(#grid)"/>
  <rect width="640" height="400" fill="url(#glow)"/>

  <line x1="70" y1="110" x2="570" y2="110" stroke="#fff" stroke-opacity="0.08"/>
  <rect x="100" y="98" width="74" height="24" rx="6" fill="#2450e6" fill-opacity="0.55"/>
  <rect x="210" y="98" width="46" height="24" rx="6" fill="#fff" fill-opacity="0.1"/>
  <rect x="320" y="98" width="46" height="24" rx="6" fill="#fff" fill-opacity="0.1"/>
  <rect x="430" y="98" width="74" height="24" rx="6" fill="#2450e6" fill-opacity="0.55"/>
  <rect x="540" y="98" width="46" height="24" rx="6" fill="#fff" fill-opacity="0.1"/>
  <line x1="70" y1="172" x2="570" y2="172" stroke="#fff" stroke-opacity="0.08"/>
  <rect x="100" y="160" width="46" height="24" rx="6" fill="#fff" fill-opacity="0.1"/>
  <rect x="210" y="160" width="46" height="24" rx="6" fill="#fff" fill-opacity="0.1"/>
  <rect x="320" y="160" width="74" height="24" rx="6" fill="#2450e6" fill-opacity="0.55"/>
  <rect x="430" y="160" width="46" height="24" rx="6" fill="#fff" fill-opacity="0.1"/>
  <rect x="540" y="160" width="46" height="24" rx="6" fill="#fff" fill-opacity="0.1"/>
  <line x1="70" y1="234" x2="570" y2="234" stroke="#fff" stroke-opacity="0.08"/>
  <rect x="100" y="222" width="46" height="24" rx="6" fill="#fff" fill-opacity="0.1"/>
  <rect x="210" y="222" width="74" height="24" rx="6" fill="#2450e6" fill-opacity="0.55"/>
  <rect x="320" y="222" width="46" height="24" rx="6" fill="#fff" fill-opacity="0.1"/>
  <rect x="430" y="222" width="46" height="24" rx="6" fill="#fff" fill-opacity="0.1"/>
  <rect x="540" y="222" width="74" height="24" rx="6" fill="#2450e6" fill-opacity="0.55"/>
  <line x1="70" y1="296" x2="570" y2="296" stroke="#fff" stroke-opacity="0.08"/>
  <rect x="100" y="284" width="74" height="24" rx="6" fill="#2450e6" fill-opacity="0.55"/>
  <rect x="210" y="284" width="46" height="24" rx="6" fill="#fff" fill-opacity="0.1"/>
  <rect x="320" y="284" width="46" height="24" rx="6" fill="#fff" fill-opacity="0.1"/>
  <rect x="430" y="284" width="74" height="24" rx="6" fill="#2450e6" fill-opacity="0.55"/>
  <rect x="540" y="284" width="46" height="24" rx="6" fill="#fff" fill-opacity="0.1"/>
</svg>
